<svg viewBox="0 0 1012 1042" fill="none" xmlns="http://www.w3.org/2000/svg">
<path d="M660.531 712.709C704.602 759.675 785.139 723.585 819.899 699.67L606.5 479L440.578 520.5C410.907 565.564 229.871 520.459 246.576 590.388C267.458 677.798 338.291 735.741 440.578 677.956C542.865 620.17 605.441 654.003 660.531 712.709Z" fill="#FF8D3C" stroke="white" stroke-width="11" stroke-linecap="round" stroke-linejoin="round"/>
<path d="M771.9 697.86C842.635 762.291 957.716 699.473 1006.41 660.01L723.5 383.001L169.5 398.5C130.799 468.693 111.711 463.225 144.586 564.849C185.681 691.879 297.328 769.455 442.098 671.974C586.867 574.494 683.481 617.321 771.9 697.86Z" fill="#13AEB9" stroke="white" stroke-width="10" stroke-linecap="round" stroke-linejoin="round"/>
</svg>
